ply
format ascii 1.0
comment Created by Blender 2.79 (sub 0) - www.blender.org, source file: ''
element vertex 304
property float x
property float y
property float z
element face 604
property list uchar uint vertex_indices
end_header
-1.028820 -0.514379 0.000000
-0.670970 -0.782767 0.000000
-0.975908 -0.487925 0.084363
-0.636462 -0.742509 0.084363
-0.316891 -0.800446 0.000000
-0.300593 -0.759279 0.084363
-0.145915 -1.064680 0.000000
-0.138411 -1.009920 0.084363
0.149405 -1.064680 0.000000
0.141721 -1.009920 0.084363
0.273751 -0.792675 0.000000
0.259672 -0.751908 0.084363
0.693336 -0.782767 0.000000
0.657678 -0.742509 0.084363
0.984090 -0.514379 0.000000
0.933478 -0.487925 0.084363
0.984091 0.469711 0.000000
0.933479 0.445554 0.084363
0.782800 0.782831 0.000000
0.742541 0.742570 0.084363
0.230312 0.785040 0.000000
0.218467 0.744665 0.084363
0.126835 1.026490 0.000000
0.120312 0.973698 0.084363
-0.183600 1.043740 0.000000
-0.174157 0.990061 0.084363
-0.269831 0.819533 0.000000
-0.255954 0.777384 0.084363
-0.738069 0.805197 0.000000
-0.700110 0.763786 0.084363
-1.028820 0.492077 0.000000
-0.975908 0.466769 0.084363
-0.914375 -0.457160 0.163285
-0.596332 -0.695693 0.163285
-0.281640 -0.711405 0.163285
-0.129684 -0.946246 0.163285
0.132785 -0.946246 0.163285
0.243299 -0.704499 0.163285
0.616210 -0.695693 0.163285
0.874621 -0.457160 0.163285
0.874622 0.417461 0.163285
0.695722 0.695750 0.163285
0.204692 0.697713 0.163285
0.112726 0.912304 0.163285
-0.163177 0.927635 0.163285
-0.239815 0.728369 0.163285
-0.655967 0.715628 0.163285
-0.914375 0.437339 0.163285
-0.837458 -0.418704 0.184808
-0.546169 -0.637172 0.184808
-0.257949 -0.651562 0.184808
-0.118775 -0.866648 0.184808
0.121616 -0.866648 0.184808
0.222833 -0.645237 0.184808
0.564375 -0.637172 0.184808
0.801048 -0.418704 0.184808
0.801049 0.382344 0.184808
0.637198 0.637224 0.184808
0.187474 0.639022 0.184808
0.103244 0.835562 0.184808
-0.149450 0.849603 0.184808
-0.219642 0.667099 0.184808
-0.600787 0.655430 0.184808
-0.837458 0.400550 0.184808
-0.814383 -0.407167 0.249381
-0.531120 -0.619615 0.249381
-0.250841 -0.633609 0.249381
-0.115502 -0.842769 0.249381
0.118265 -0.842769 0.249381
0.216693 -0.627458 0.249381
0.548824 -0.619615 0.249381
0.778976 -0.407167 0.249381
0.778977 0.371809 0.249381
0.619641 0.619666 0.249381
0.182308 0.621414 0.249381
0.100399 0.812539 0.249381
-0.145332 0.826193 0.249381
-0.213590 0.648718 0.249381
-0.584233 0.637370 0.249381
-0.814383 0.389513 0.249381
-0.514410 -0.257190 0.311228
-0.335485 -0.391383 0.311228
-0.158446 -0.400223 0.311228
-0.072958 -0.532340 0.311228
0.074703 -0.532340 0.311228
0.136875 -0.396338 0.311228
0.346668 -0.391383 0.311228
0.492045 -0.257190 0.311228
0.492045 0.234856 0.311228
0.391400 0.391416 0.311228
0.115156 0.392520 0.311228
0.063418 0.513245 0.311228
-0.091800 0.521870 0.311228
-0.134916 0.409766 0.311228
-0.369034 0.402599 0.311228
-0.514410 0.246038 0.311228
-0.294883 -0.147433 0.430679
-0.192315 -0.224359 0.430679
-0.090828 -0.229426 0.430679
-0.041823 -0.305162 0.430679
0.042823 -0.305162 0.430679
0.078463 -0.227199 0.430679
0.198726 -0.224359 0.430679
0.282063 -0.147433 0.430679
0.282063 0.134630 0.430679
0.224368 0.224377 0.430679
0.066013 0.225011 0.430679
0.036354 0.294216 0.430679
-0.052624 0.299160 0.430679
-0.077340 0.234897 0.430679
-0.211548 0.230788 0.430679
-0.294883 0.141041 0.430679
-0.268278 -0.134131 0.536368
-0.174964 -0.204117 0.536368
-0.082634 -0.208727 0.536368
-0.038049 -0.277629 0.536368
0.038959 -0.277629 0.536368
0.071384 -0.206700 0.536368
0.180796 -0.204117 0.536368
0.256614 -0.134131 0.536368
0.256615 0.122483 0.536368
0.204125 0.204133 0.536368
0.060057 0.204709 0.536368
0.033074 0.267671 0.536368
-0.047876 0.272169 0.536368
-0.070362 0.213704 0.536368
-0.192461 0.209966 0.536368
-0.268278 0.128315 0.536368
-0.345194 -0.172587 0.572241
-0.225127 -0.262637 0.572241
-0.106325 -0.268569 0.572241
-0.048958 -0.357226 0.572241
0.050129 -0.357226 0.572241
0.091850 -0.265961 0.572241
0.232631 -0.262637 0.572241
0.330186 -0.172587 0.572241
0.330186 0.157599 0.572241
0.262648 0.262659 0.572241
0.077275 0.263400 0.572241
0.042556 0.344412 0.572241
-0.061602 0.350200 0.572241
-0.090535 0.274973 0.572241
-0.247640 0.270163 0.572241
-0.345194 0.165104 0.572241
-0.375961 -0.187969 0.629639
-0.245192 -0.286046 0.629639
-0.115801 -0.292506 0.629639
-0.053322 -0.389065 0.629639
0.054597 -0.389065 0.629639
0.100037 -0.289666 0.629639
0.253365 -0.286046 0.629639
0.359615 -0.187969 0.629639
0.359615 0.171646 0.629639
0.286058 0.286069 0.629639
0.084163 0.286876 0.629639
0.046349 0.375109 0.629639
-0.067093 0.381413 0.629639
-0.098604 0.299481 0.629639
-0.269712 0.294242 0.629639
-0.375961 0.179819 0.629639
-0.683626 -0.341792 0.715735
-0.445843 -0.520130 0.715735
-0.210566 -0.531877 0.715735
-0.096957 -0.707454 0.715735
0.099276 -0.707454 0.715735
0.181901 -0.526713 0.715735
0.460705 -0.520130 0.715735
0.653904 -0.341792 0.715735
0.653905 0.312112 0.715735
0.520152 0.520172 0.715735
0.153037 0.521640 0.715735
0.084279 0.682078 0.715735
-0.121998 0.693540 0.715735
-0.179296 0.544560 0.715735
-0.490429 0.535034 0.715735
-0.683626 0.326973 0.715735
-0.822076 -0.411013 1.117518
-0.536137 -0.625468 1.117518
-0.253211 -0.639594 1.117518
-0.116593 -0.850729 1.117518
0.119382 -0.850729 1.117518
0.218740 -0.633385 1.117518
0.554008 -0.625468 1.117518
0.786334 -0.411013 1.117518
0.786335 0.375321 1.117518
0.625494 0.625519 1.117518
0.184030 0.627284 1.117518
0.101347 0.820214 1.117518
-0.146705 0.833997 1.117518
-0.215608 0.654845 1.117518
-0.589752 0.643390 1.117518
-0.822076 0.393193 1.117518
-0.799000 -0.399476 1.174915
-0.521087 -0.607911 1.174915
-0.246103 -0.621641 1.174915
-0.113320 -0.826850 1.174915
0.116031 -0.826850 1.174915
0.212600 -0.615606 1.174915
0.538457 -0.607911 1.174915
0.764262 -0.399476 1.174915
0.764263 0.364786 1.174915
0.607937 0.607961 1.174915
0.178864 0.609676 1.174915
0.098502 0.797191 1.174915
-0.142587 0.810587 1.174915
-0.209556 0.636464 1.174915
-0.573198 0.625331 1.174915
-0.799000 0.382156 1.174915
-1.014370 -0.507152 1.863685
-0.661544 -0.771770 1.863685
-0.312439 -0.789200 1.863685
-0.143865 -1.049720 1.863685
0.147306 -1.049720 1.863685
0.269905 -0.781539 1.863685
0.683595 -0.771770 1.863685
0.970264 -0.507152 1.863685
0.970266 0.463112 1.863685
0.771802 0.771833 1.863685
0.227076 0.774011 1.863685
0.125053 1.012070 1.863685
-0.181021 1.029080 1.863685
-0.266040 0.808019 1.863685
-0.727700 0.793885 1.863685
-1.014370 0.485164 1.863685
-1.191270 -0.595599 1.964127
-0.776916 -0.906366 1.964127
-0.366928 -0.926836 1.964127
-0.168955 -1.232790 1.964127
0.172996 -1.232790 1.964127
0.316976 -0.917838 1.964127
0.802814 -0.906366 1.964127
1.139480 -0.595599 1.964127
1.139480 0.543878 1.964127
0.906404 0.906440 1.964127
0.266678 0.908998 1.964127
0.146862 1.188570 1.964127
-0.212590 1.208550 1.964127
-0.312437 0.948937 1.964127
-0.854610 0.932338 1.964127
-1.191270 0.569776 1.964127
-1.106660 -0.553297 2.000000
-0.721736 -0.841991 2.000000
-0.340867 -0.861008 2.000000
-0.156955 -1.145230 2.000000
0.160709 -1.145230 2.000000
0.294463 -0.852649 2.000000
0.745794 -0.841991 2.000000
1.058550 -0.553297 2.000000
1.058550 0.505249 2.000000
0.842027 0.842060 2.000000
0.247737 0.844436 2.000000
0.136431 1.104150 2.000000
-0.197491 1.122710 2.000000
-0.290246 0.881539 2.000000
-0.793911 0.866118 2.000000
-1.106660 0.529308 2.000000
-0.875917 -0.437932 1.921086
-0.571250 -0.666432 1.921086
-0.269795 -0.681484 1.921086
-0.124229 -0.906447 1.921086
0.127200 -0.906447 1.921086
0.233066 -0.674868 1.921086
0.590292 -0.666432 1.921086
0.837835 -0.437932 1.921086
0.837835 0.399903 1.921086
0.666460 0.666487 1.921086
0.196083 0.668367 1.921086
0.107985 0.873933 1.921086
-0.156313 0.888619 1.921086
-0.229729 0.697734 1.921086
-0.628377 0.685529 1.921086
-0.875917 0.418945 1.921086
-0.522101 -0.261035 0.880753
-0.340501 -0.397235 0.880753
-0.160815 -0.406207 0.880753
-0.074048 -0.540300 0.880753
0.075819 -0.540300 0.880753
0.138922 -0.402264 0.880753
0.351851 -0.397235 0.880753
0.499402 -0.261035 0.880753
0.499403 0.238367 0.880753
0.397252 0.397268 0.880753
0.116878 0.398389 0.880753
0.064366 0.520919 0.880753
-0.093173 0.529673 0.880753
-0.136933 0.415893 0.880753
-0.374552 0.408618 0.880753
-0.522101 0.249717 0.880753
-0.006762 -0.003381 0.773133
-0.004410 -0.005145 0.773133
-0.002083 -0.005261 0.773133
-0.000959 -0.006998 0.773133
0.000982 -0.006998 0.773133
0.001799 -0.005210 0.773133
0.004557 -0.005145 0.773133
0.006468 -0.003381 0.773133
0.006468 0.003087 0.773133
0.005145 0.005146 0.773133
0.001514 0.005160 0.773133
0.000834 0.006747 0.773133
-0.001207 0.006861 0.773133
-0.001774 0.005387 0.773133
-0.004851 0.005293 0.773133
-0.006762 0.003234 0.773133
3 0 1 2
3 2 1 3
3 1 4 3
3 3 4 5
3 4 6 5
3 5 6 7
3 6 8 7
3 7 8 9
3 8 10 9
3 9 10 11
3 10 12 11
3 11 12 13
3 12 14 13
3 13 14 15
3 14 16 15
3 15 16 17
3 16 18 17
3 17 18 19
3 18 20 19
3 19 20 21
3 20 22 21
3 21 22 23
3 22 24 23
3 23 24 25
3 24 26 25
3 25 26 27
3 26 28 27
3 27 28 29
3 28 30 29
3 29 30 31
3 30 0 31
3 31 0 2
3 2 3 32
3 32 3 33
3 3 5 33
3 33 5 34
3 5 7 34
3 34 7 35
3 7 9 35
3 35 9 36
3 9 11 36
3 36 11 37
3 11 13 37
3 37 13 38
3 13 15 38
3 38 15 39
3 15 17 39
3 39 17 40
3 17 19 40
3 40 19 41
3 19 21 41
3 41 21 42
3 21 23 42
3 42 23 43
3 23 25 43
3 43 25 44
3 25 27 44
3 44 27 45
3 27 29 45
3 45 29 46
3 29 31 46
3 46 31 47
3 31 2 47
3 47 2 32
3 32 33 48
3 48 33 49
3 33 34 49
3 49 34 50
3 34 35 50
3 50 35 51
3 35 36 51
3 51 36 52
3 36 37 52
3 52 37 53
3 37 38 53
3 53 38 54
3 38 39 54
3 54 39 55
3 39 40 55
3 55 40 56
3 40 41 56
3 56 41 57
3 41 42 57
3 57 42 58
3 42 43 58
3 58 43 59
3 43 44 59
3 59 44 60
3 44 45 60
3 60 45 61
3 45 46 61
3 61 46 62
3 46 47 62
3 62 47 63
3 47 32 63
3 63 32 48
3 48 49 64
3 64 49 65
3 49 50 65
3 65 50 66
3 50 51 66
3 66 51 67
3 51 52 67
3 67 52 68
3 52 53 68
3 68 53 69
3 53 54 69
3 69 54 70
3 54 55 70
3 70 55 71
3 55 56 71
3 71 56 72
3 56 57 72
3 72 57 73
3 57 58 73
3 73 58 74
3 58 59 74
3 74 59 75
3 59 60 75
3 75 60 76
3 60 61 76
3 76 61 77
3 61 62 77
3 77 62 78
3 62 63 78
3 78 63 79
3 63 48 79
3 79 48 64
3 64 65 80
3 80 65 81
3 65 66 81
3 81 66 82
3 66 67 82
3 82 67 83
3 67 68 83
3 83 68 84
3 68 69 84
3 84 69 85
3 69 70 85
3 85 70 86
3 70 71 86
3 86 71 87
3 71 72 87
3 87 72 88
3 72 73 88
3 88 73 89
3 73 74 89
3 89 74 90
3 74 75 90
3 90 75 91
3 75 76 91
3 91 76 92
3 76 77 92
3 92 77 93
3 77 78 93
3 93 78 94
3 78 79 94
3 94 79 95
3 79 64 95
3 95 64 80
3 80 81 96
3 96 81 97
3 81 82 97
3 97 82 98
3 82 83 98
3 98 83 99
3 83 84 99
3 99 84 100
3 84 85 100
3 100 85 101
3 85 86 101
3 101 86 102
3 86 87 102
3 102 87 103
3 87 88 103
3 103 88 104
3 88 89 104
3 104 89 105
3 89 90 105
3 105 90 106
3 90 91 106
3 106 91 107
3 91 92 107
3 107 92 108
3 92 93 108
3 108 93 109
3 93 94 109
3 109 94 110
3 94 95 110
3 110 95 111
3 95 80 111
3 111 80 96
3 96 97 112
3 112 97 113
3 97 98 113
3 113 98 114
3 98 99 114
3 114 99 115
3 99 100 115
3 115 100 116
3 100 101 116
3 116 101 117
3 101 102 117
3 117 102 118
3 102 103 118
3 118 103 119
3 103 104 119
3 119 104 120
3 104 105 120
3 120 105 121
3 105 106 121
3 121 106 122
3 106 107 122
3 122 107 123
3 107 108 123
3 123 108 124
3 108 109 124
3 124 109 125
3 109 110 125
3 125 110 126
3 110 111 126
3 126 111 127
3 111 96 127
3 127 96 112
3 112 113 128
3 128 113 129
3 113 114 129
3 129 114 130
3 114 115 130
3 130 115 131
3 115 116 131
3 131 116 132
3 116 117 132
3 132 117 133
3 117 118 133
3 133 118 134
3 118 119 134
3 134 119 135
3 119 120 135
3 135 120 136
3 120 121 136
3 136 121 137
3 121 122 137
3 137 122 138
3 122 123 138
3 138 123 139
3 123 124 139
3 139 124 140
3 124 125 140
3 140 125 141
3 125 126 141
3 141 126 142
3 126 127 142
3 142 127 143
3 127 112 143
3 143 112 128
3 128 129 144
3 144 129 145
3 129 130 145
3 145 130 146
3 130 131 146
3 146 131 147
3 131 132 147
3 147 132 148
3 132 133 148
3 148 133 149
3 133 134 149
3 149 134 150
3 134 135 150
3 150 135 151
3 135 136 151
3 151 136 152
3 136 137 152
3 152 137 153
3 137 138 153
3 153 138 154
3 138 139 154
3 154 139 155
3 139 140 155
3 155 140 156
3 140 141 156
3 156 141 157
3 141 142 157
3 157 142 158
3 142 143 158
3 158 143 159
3 143 128 159
3 159 128 144
3 144 145 160
3 160 145 161
3 145 146 161
3 161 146 162
3 146 147 162
3 162 147 163
3 147 148 163
3 163 148 164
3 148 149 164
3 164 149 165
3 149 150 165
3 165 150 166
3 150 151 166
3 166 151 167
3 151 152 167
3 167 152 168
3 152 153 168
3 168 153 169
3 153 154 169
3 169 154 170
3 154 155 170
3 170 155 171
3 155 156 171
3 171 156 172
3 156 157 172
3 172 157 173
3 157 158 173
3 173 158 174
3 158 159 174
3 174 159 175
3 159 144 175
3 175 144 160
3 160 161 176
3 176 161 177
3 161 162 177
3 177 162 178
3 162 163 178
3 178 163 179
3 163 164 179
3 179 164 180
3 164 165 180
3 180 165 181
3 165 166 181
3 181 166 182
3 166 167 182
3 182 167 183
3 167 168 183
3 183 168 184
3 168 169 184
3 184 169 185
3 169 170 185
3 185 170 186
3 170 171 186
3 186 171 187
3 171 172 187
3 187 172 188
3 172 173 188
3 188 173 189
3 173 174 189
3 189 174 190
3 174 175 190
3 190 175 191
3 175 160 191
3 191 160 176
3 176 177 192
3 192 177 193
3 177 178 193
3 193 178 194
3 178 179 194
3 194 179 195
3 179 180 195
3 195 180 196
3 180 181 196
3 196 181 197
3 181 182 197
3 197 182 198
3 182 183 198
3 198 183 199
3 183 184 199
3 199 184 200
3 184 185 200
3 200 185 201
3 185 186 201
3 201 186 202
3 186 187 202
3 202 187 203
3 187 188 203
3 203 188 204
3 188 189 204
3 204 189 205
3 189 190 205
3 205 190 206
3 190 191 206
3 206 191 207
3 191 176 207
3 207 176 192
3 192 193 208
3 208 193 209
3 193 194 209
3 209 194 210
3 194 195 210
3 210 195 211
3 195 196 211
3 211 196 212
3 196 197 212
3 212 197 213
3 197 198 213
3 213 198 214
3 198 199 214
3 214 199 215
3 199 200 215
3 215 200 216
3 200 201 216
3 216 201 217
3 201 202 217
3 217 202 218
3 202 203 218
3 218 203 219
3 203 204 219
3 219 204 220
3 204 205 220
3 220 205 221
3 205 206 221
3 221 206 222
3 206 207 222
3 222 207 223
3 207 192 223
3 223 192 208
3 208 209 224
3 224 209 225
3 209 210 225
3 225 210 226
3 210 211 226
3 226 211 227
3 211 212 227
3 227 212 228
3 212 213 228
3 228 213 229
3 213 214 229
3 229 214 230
3 214 215 230
3 230 215 231
3 215 216 231
3 231 216 232
3 216 217 232
3 232 217 233
3 217 218 233
3 233 218 234
3 218 219 234
3 234 219 235
3 219 220 235
3 235 220 236
3 220 221 236
3 236 221 237
3 221 222 237
3 237 222 238
3 222 223 238
3 238 223 239
3 223 208 239
3 239 208 224
3 224 225 240
3 240 225 241
3 225 226 241
3 241 226 242
3 226 227 242
3 242 227 243
3 227 228 243
3 243 228 244
3 228 229 244
3 244 229 245
3 229 230 245
3 245 230 246
3 230 231 246
3 246 231 247
3 231 232 247
3 247 232 248
3 232 233 248
3 248 233 249
3 233 234 249
3 249 234 250
3 234 235 250
3 250 235 251
3 235 236 251
3 251 236 252
3 236 237 252
3 252 237 253
3 237 238 253
3 253 238 254
3 238 239 254
3 254 239 255
3 239 224 255
3 255 224 240
3 240 241 256
3 256 241 257
3 241 242 257
3 257 242 258
3 242 243 258
3 258 243 259
3 243 244 259
3 259 244 260
3 244 245 260
3 260 245 261
3 245 246 261
3 261 246 262
3 246 247 262
3 262 247 263
3 247 248 263
3 263 248 264
3 248 249 264
3 264 249 265
3 249 250 265
3 265 250 266
3 250 251 266
3 266 251 267
3 251 252 267
3 267 252 268
3 252 253 268
3 268 253 269
3 253 254 269
3 269 254 270
3 254 255 270
3 270 255 271
3 255 240 271
3 271 240 256
3 256 257 272
3 272 257 273
3 257 258 273
3 273 258 274
3 258 259 274
3 274 259 275
3 259 260 275
3 275 260 276
3 260 261 276
3 276 261 277
3 261 262 277
3 277 262 278
3 262 263 278
3 278 263 279
3 263 264 279
3 279 264 280
3 264 265 280
3 280 265 281
3 265 266 281
3 281 266 282
3 266 267 282
3 282 267 283
3 267 268 283
3 283 268 284
3 268 269 284
3 284 269 285
3 269 270 285
3 285 270 286
3 270 271 286
3 286 271 287
3 271 256 287
3 287 256 272
3 272 273 288
3 288 273 289
3 273 274 289
3 289 274 290
3 274 275 290
3 290 275 291
3 275 276 291
3 291 276 292
3 276 277 292
3 292 277 293
3 277 278 293
3 293 278 294
3 278 279 294
3 294 279 295
3 279 280 295
3 295 280 296
3 280 281 296
3 296 281 297
3 281 282 297
3 297 282 298
3 282 283 298
3 298 283 299
3 283 284 299
3 299 284 300
3 284 285 300
3 300 285 301
3 285 286 301
3 301 286 302
3 286 287 302
3 302 287 303
3 287 272 303
3 303 272 288
3 26 22 20
3 30 28 26
3 30 20 18
3 18 0 30
3 30 26 20
3 26 24 22
3 18 16 14
3 18 14 12
3 18 12 10
3 18 10 8
3 18 8 6
3 18 6 4
3 18 4 1
3 1 0 18
3 298 299 301
3 301 302 303
3 297 298 303
3 303 288 297
3 298 301 303
3 299 300 301
3 295 296 297
3 294 295 297
3 293 294 297
3 292 293 297
3 291 292 297
3 290 291 297
3 289 290 297
3 288 289 297
