ply
format ascii 1.0
comment Created by Blender 2.79 (sub 0) - www.blender.org, source file: ''
element vertex 60
property float x
property float y
property float z
property float nx
property float ny
property float nz
element face 20
property list uchar uint vertex_indices
end_header
0.525731 0.850651 2.000000 -0.934172 -0.356822 -0.000000
0.850651 0.000000 1.474269 -0.934172 -0.356822 -0.000000
0.850651 0.000000 2.525731 -0.934172 -0.356822 -0.000000
0.850651 0.000000 1.474269 -0.934172 0.356822 0.000000
0.525731 -0.850651 2.000000 -0.934172 0.356822 0.000000
0.850651 0.000000 2.525731 -0.934172 0.356822 0.000000
-0.525731 0.850651 2.000000 0.934172 -0.356822 0.000000
-0.850651 0.000000 2.525731 0.934172 -0.356822 0.000000
-0.850651 0.000000 1.474269 0.934172 -0.356822 0.000000
-0.525731 -0.850651 2.000000 0.934172 0.356822 0.000000
-0.850651 0.000000 1.474269 0.934172 0.356822 0.000000
-0.850651 0.000000 2.525731 0.934172 0.356822 0.000000
0.000000 0.525731 2.850651 -0.000000 -0.934172 -0.356822
-0.525731 0.850651 2.000000 -0.000000 -0.934172 -0.356822
0.525731 0.850651 2.000000 -0.000000 -0.934172 -0.356822
0.000000 0.525731 1.149349 0.000000 -0.934172 0.356822
0.525731 0.850651 2.000000 0.000000 -0.934172 0.356822
-0.525731 0.850651 2.000000 0.000000 -0.934172 0.356822
0.850651 0.000000 1.474269 -0.356822 0.000000 0.934172
0.000000 0.525731 1.149349 -0.356822 0.000000 0.934172
0.000000 -0.525731 1.149349 -0.356822 0.000000 0.934172
-0.850651 0.000000 1.474269 0.356822 0.000000 0.934172
0.000000 -0.525731 1.149349 0.356822 0.000000 0.934172
0.000000 0.525731 1.149349 0.356822 0.000000 0.934172
0.000000 -0.525731 1.149349 0.000000 0.934172 0.356822
-0.525731 -0.850651 2.000000 0.000000 0.934172 0.356822
0.525731 -0.850651 2.000000 0.000000 0.934172 0.356822
0.000000 -0.525731 2.850651 0.000000 0.934172 -0.356822
0.525731 -0.850651 2.000000 0.000000 0.934172 -0.356822
-0.525731 -0.850651 2.000000 0.000000 0.934172 -0.356822
0.850651 0.000000 2.525731 -0.356822 -0.000000 -0.934172
0.000000 -0.525731 2.850651 -0.356822 -0.000000 -0.934172
0.000000 0.525731 2.850651 -0.356822 -0.000000 -0.934172
0.000000 0.525731 2.850651 0.356822 0.000000 -0.934172
0.000000 -0.525731 2.850651 0.356822 0.000000 -0.934172
-0.850651 0.000000 2.525731 0.356822 0.000000 -0.934172
0.000000 0.525731 1.149349 -0.577350 -0.577350 0.577350
0.850651 0.000000 1.474269 -0.577350 -0.577350 0.577350
0.525731 0.850651 2.000000 -0.577350 -0.577350 0.577350
0.000000 0.525731 2.850651 -0.577350 -0.577350 -0.577350
0.525731 0.850651 2.000000 -0.577350 -0.577350 -0.577350
0.850651 0.000000 2.525731 -0.577350 -0.577350 -0.577350
0.000000 0.525731 1.149349 0.577350 -0.577350 0.577350
-0.525731 0.850651 2.000000 0.577350 -0.577350 0.577350
-0.850651 0.000000 1.474269 0.577350 -0.577350 0.577350
0.000000 0.525731 2.850651 0.577350 -0.577350 -0.577350
-0.850651 0.000000 2.525731 0.577350 -0.577350 -0.577350
-0.525731 0.850651 2.000000 0.577350 -0.577350 -0.577350
0.000000 -0.525731 1.149349 -0.577350 0.577350 0.577350
0.525731 -0.850651 2.000000 -0.577350 0.577350 0.577350
0.850651 0.000000 1.474269 -0.577350 0.577350 0.577350
0.000000 -0.525731 2.850651 -0.577350 0.577350 -0.577350
0.850651 0.000000 2.525731 -0.577350 0.577350 -0.577350
0.525731 -0.850651 2.000000 -0.577350 0.577350 -0.577350
-0.525731 -0.850651 2.000000 0.577350 0.577350 0.577350
0.000000 -0.525731 1.149349 0.577350 0.577350 0.577350
-0.850651 0.000000 1.474269 0.577350 0.577350 0.577350
0.000000 -0.525731 2.850651 0.577350 0.577350 -0.577350
-0.525731 -0.850651 2.000000 0.577350 0.577350 -0.577350
-0.850651 0.000000 2.525731 0.577350 0.577350 -0.577350
3 0 1 2
3 3 4 5
3 6 7 8
3 9 10 11
3 12 13 14
3 15 16 17
3 18 19 20
3 21 22 23
3 24 25 26
3 27 28 29
3 30 31 32
3 33 34 35
3 36 37 38
3 39 40 41
3 42 43 44
3 45 46 47
3 48 49 50
3 51 52 53
3 54 55 56
3 57 58 59
